# xmcd
#
# Track frame offsets:
#	150
#	13032
#	30465
#	48572
#	63567
#	79472
#	90772
#	108415
#	122682
#	135882
#	146710
#
# Disc length: 2170 seconds
#
# Revision: 1
# Processed by: cddbd v1.4PL0 Copyright (c) Steve Scherf et al.
# Submitted via: EasyCDDAExtractor 5.0.7
#
DISCID=8b08780b
DTITLE=Carol Joy Robins - Off Color Blues
DYEAR=1990
DGENRE=Blues
TTITLE0=Snatch and Grab It
TTITLE1=My Handyman
TTITLE2=Long John Blues
TTITLE3=I Must Get Mine in Front
TTITLE4=I Need a Little Sugar in My Bowl
TTITLE5=I Know How to Do It
TTITLE6=Do Your Duty
TTITLE7=Hard Drivin' Mama
TTITLE8=If I Can't Sell It, I'll Keep Sittin' on It
TTITLE9=They Raided the Joint
TTITLE10=Don't You Feel My Leg, Don't You Feel Me High
EXTD=
EXTT0=
EXTT1=
EXTT2=
EXTT3=
EXTT4=
EXTT5=
EXTT6=
EXTT7=
EXTT8=
EXTT9=
EXTT10=
PLAYORDER=
